<svg xmlns="http://www.w3.org/2000/svg" width="24" height="26" fill="none" viewBox="0 0 24 26">
    <path fill="#CBB5E6" d="M24 9.284V5.401c0-2.006-1.77-3.64-3.97-3.697v2.291c0 1.302-1.059 2.361-2.36 2.361-1.302 0-2.361-1.059-2.361-2.36V1.697H8.615v2.298c0 1.301-1.06 2.36-2.36 2.36-1.303 0-2.361-1.059-2.361-2.36V1.707C1.73 1.797 0 3.417 0 5.4v16.213c0 2.252 1.833 4.085 4.085 4.085h15.83c2.252 0 4.085-1.833 4.085-4.085V9.284zm-1.778 12.33c0 1.272-1.035 2.306-2.307 2.306H4.085c-1.272 0-2.307-1.034-2.307-2.307V9.284h20.444v12.33z"/>
    <path fill="#CBB5E6" d="M5.227 1.028v2.968c0 .567.46 1.027 1.028 1.027.567 0 1.027-.46 1.027-1.028V1.028C7.282.46 6.822 0 6.255 0c-.568 0-1.028.46-1.028 1.028zM17.67 0c-.568 0-1.028.46-1.028 1.028v2.968c0 .567.46 1.027 1.028 1.027.567 0 1.028-.46 1.028-1.027V1.028C18.697.46 18.238 0 17.67 0z"/>
    <path fill="#D8D8D8" d="M9.026 21.563c1.16 0 2.034-.324 2.626-.971.59-.648.887-1.399.887-2.253 0-.812-.253-1.453-.76-1.922-.137-.126-.26-.226-.372-.301-.204-.137-.219-.235-.027-.384.107-.083.213-.184.317-.303.352-.409.529-.91.529-1.505 0-.84-.295-1.51-.887-2.008-.591-.5-1.369-.749-2.333-.749-.52 0-.958.063-1.315.188-.357.126-.665.306-.925.543-.348.335-.602.7-.765 1.094-.107.315-.181.644-.222.984-.03.244.164.443.41.443h.962c.246 0 .435-.2.47-.444.044-.295.14-.544.29-.746.22-.297.564-.446 1.032-.446.408 0 .723.12.948.362.224.241.336.554.336.94 0 .595-.22.989-.659 1.184-.19.087-.492.143-.901.17-.245.016-.444.217-.444.462v.531c0 .246.2.443.444.456.435.023.768.082 1 .177.537.223.805.666.805 1.33 0 .501-.145.885-.434 1.152-.29.267-.63.4-1.018.4-.635 0-1.072-.243-1.313-.73-.079-.161-.133-.348-.164-.56-.036-.242-.23-.443-.475-.443h-1.06c-.246 0-.44.199-.413.443.067.602.218 1.104.454 1.506.556.933 1.549 1.4 2.977 1.4zM14.55 14.35h1.485c.245 0 .444.199.444.444v6.074c0 .245.2.444.445.444h1.144c.245 0 .445-.199.445-.444V11.66c0-.245-.2-.445-.445-.445H17.3c-.246 0-.448.093-.471.204-.013.059-.03.125-.05.2-.088.302-.218.543-.39.724-.25.264-.574.44-.972.53-.185.04-.475.074-.869.1-.244.016-.443.224-.443.469v.461c0 .246.2.446.444.446z"/>
</svg>
