<svg xmlns="http://www.w3.org/2000/svg" width="40" height="40" fill="none" viewBox="0 0 40 40">
    <path fill="#EEE1ED" d="M39.983 17.48v4.149L20 36.847.018 21.63v-4.15h39.965z"/>
    <path fill="#C8BEB9" d="M39.983 17.48v4.149L20 36.847V17.48h19.983z"/>
    <path fill="#F8DEED" d="M5.026 33.696V0h29.948v33.683l-29.948.013z"/>
    <path fill="#F9D1E7" d="M20 33.696V0h14.974v33.683L20 33.696z"/>
    <path fill="#F9D1E7" d="M14.495 19.151h11.01v2.344h-11.01V19.15z"/>
    <path fill="#E6A6CC" d="M20 19.151h5.505v2.344H20V19.15z"/>
    <path fill="#F9D1E7" d="M11.877 24.13h16.246v2.344H11.877V24.13z"/>
    <path fill="#E6A6CC" d="M20 24.13h8.123v2.344H20V24.13z"/>
    <path fill="#FDF4FC" d="M39.983 21.629L19.955 32.94.017 21.63V40h39.965V21.629z"/>
    <path fill="#EEE1ED" d="M39.983 21.629L20 32.94V40h19.983V21.629z"/>
    <path fill="#87325C" d="M25.02 4.98c-1.096 0-2.06.568-2.61 1.426-.552.859-5.713 1.675-5.713 1.675 0 2.08 1.401 4.192 5.712 7.263 4.312-3.071 5.713-5.182 5.713-7.263 0-1.713-1.389-3.102-3.102-3.102z"/>
    <path fill="#FF80AA" d="M20.208 4.98c-1.096 0-2.06.568-2.611 1.426-.552-.858-1.515-1.427-2.611-1.427-1.713 0-3.102 1.389-3.102 3.102 0 2.08 1.401 4.192 5.713 7.263 4.31-3.071 5.712-5.182 5.712-7.263 0-1.713-1.388-3.102-3.101-3.102z"/>
    <path fill="#B8457E" d="M20.208 4.98c-.07 0-.14.002-.208.006v8.49c2.448-2.115 3.31-3.764 3.31-5.395 0-1.713-1.39-3.102-3.102-3.102z"/>
</svg>
