<svg xmlns="http://www.w3.org/2000/svg" width="24" height="25" fill="none" viewBox="0 0 24 25">
    <g clip-path="url(#clip0)">
        <path fill="#000" stroke="#000" d="M23.137 7.39l-.851-.507v-2.55c0-.985-.768-1.785-1.715-1.785h-5.557L12.852 1.26c-.264-.157-.558-.236-.852-.236-.294 0-.588.079-.851.236L8.987 2.55H3.428c-.947 0-1.715.799-1.715 1.785v2.55l-.851.507C.329 7.709 0 8.3 0 8.94v12.251s0 0 0 0v.999c0 .986.768 1.786 1.714 1.786h20.572c.946 0 1.714-.8 1.714-1.786V8.941c0-.64-.33-1.232-.863-1.55zM11.574 2.035c.13-.077.277-.118.426-.118.15 0 .296.04.426.118l.862.514h-2.576l.862-.514zm-9.003 2.3c0-.492.385-.893.858-.893H20.57c.473 0 .858.4.858.893v7.27l-5.918 4.404c-.212-.043-.427-.067-.645-.067H9.134c-.218 0-.433.024-.645.066l-5.918-4.403v-7.27zM.857 8.94c0-.32.165-.617.431-.775l.426-.254v3.054l-.857-.637V8.94zm.265 13.866c-.158-.157-.265-.368-.265-.616V11.426l6.661 4.956c-.292.164-.57.356-.808.605l-5.588 5.82zm.947.277l5.247-5.466c.486-.505 1.132-.784 1.818-.784h5.732c.687 0 1.332.279 1.818.784l5.247 5.466H2.069v0zm21.074-.893c0 .248-.107.459-.265.616l-5.588-5.82c-.239-.248-.516-.441-.808-.605l6.66-4.956V22.19zm0-11.862l-.857.637V7.912l.426.254c.266.158.43.455.43.775v1.388z"/>
        <path fill="#CBB5E6" d="M15.337 7.675c-.428-.428-.997-.664-1.602-.664-.605 0-1.173.236-1.601.663l-.127.127-.14-.14c-.88-.88-2.315-.882-3.199-.003-.43.427-.667.995-.668 1.6-.002.606.233 1.176.66 1.605l2.255 2.262 1.09 1.084 3.332-3.331c.427-.428.663-.997.663-1.602 0-.605-.236-1.174-.663-1.601z"/>
    </g>
    <defs>
        <clipPath id="clip0">
            <path fill="#fff" d="M0 0H24V25H0z"/>
        </clipPath>
    </defs>
</svg>
