<svg xmlns="http://www.w3.org/2000/svg" width="24" height="24" fill="none" viewBox="0 0 19 18">
    <g clip-path="url(#clip0)">
        <path fill="#6545E3" d="M12.15 13.607c-.117-.15-.328-.19-.49-.09-2.292 1.403-5.288.683-6.69-1.61-1.403-2.29-.683-5.286 1.609-6.689.565-.346 1.195-.573 1.85-.667.185-.026.322-.184.322-.37V1.124c0-.207-.168-.375-.375-.375C4.038.75.51 4.614.51 9.365c.005 4.756 3.86 8.61 8.615 8.616 1.727.134 3.435-.437 4.733-1.584.157-.129.182-.36.058-.52l-1.766-2.27z"/>
        <path fill="#D8D8D8" d="M9.875 3.746c2.688.003 4.866 2.182 4.87 4.87 0 .207.167.374.374.374h2.997c.207 0 .374-.167.374-.374C18.485 3.86 14.63.006 9.875 0 9.668 0 9.5.168 9.5.375V3.37c0 .207.168.375.375.375z"/>
        <path fill="#CBB5E6" d="M18.116 9.74H15.06c-.188-.002-.348.135-.375.32-.169 1.18-.765 2.257-1.675 3.025-.157.132-.18.366-.05.525l2.24 2.772c.065.081.16.131.264.138h.03c.094 0 .186-.035.255-.1 1.746-1.633 2.738-3.915 2.741-6.306 0-.207-.167-.374-.374-.374z"/>
    </g>
    <defs>
        <clipPath id="clip0">
            <path fill="#fff" d="M0 0H18V18H0z" transform="translate(.5)"/>
        </clipPath>
    </defs>
</svg>
