<svg xmlns="http://www.w3.org/2000/svg" width="30" height="30" fill="none" viewBox="0 0 30 30">
    <g clip-path="url(#clip0)">
        <path fill="#707070" d="M9.101 3.348c-3.02 0-5.476 2.605-5.476 5.806s2.457 5.806 5.476 5.806c3.02 0 5.476-2.605 5.476-5.806s-2.456-5.806-5.476-5.806zM21.55 4.179h-.037c-1.267.01-2.45.546-3.332 1.507-.867.944-1.338 2.19-1.327 3.507.01 1.317.503 2.555 1.384 3.485.89.936 2.067 1.451 3.32 1.451h.038c1.267-.01 2.45-.546 3.332-1.507.867-.944 1.338-2.19 1.327-3.507-.022-2.73-2.13-4.936-4.704-4.936zM21.782 15.08h-.455c-2.118 0-4.05.805-5.509 2.124.365.28.713.585 1.042.915.971.971 1.734 2.103 2.267 3.364.48 1.136.755 2.332.819 3.564H30v-1.75c0-4.53-3.687-8.217-8.218-8.217zM18.185 25.048c-.166-2.672-1.52-5.021-3.541-6.527-1.47-1.096-3.294-1.745-5.269-1.745h-.547C3.952 16.776 0 20.73 0 25.604v1.048h18.202v-1.048c0-.187-.006-.372-.017-.556z"/>
    </g>
    <defs>
        <clipPath id="clip0">
            <path fill="#fff" d="M0 0H30V30H0z"/>
        </clipPath>
    </defs>
</svg>
