<svg xmlns="http://www.w3.org/2000/svg" width="24" height="24" fill="none" viewBox="0 0 21 20">
    <g clip-path="url(#clip0)">
        <path fill="#CBB5E6" d="M2.569 2.414C1.426 2.414.5 3.34.5 4.483c0 1.142.926 2.069 2.069 2.069 1.143 0 2.069-.927 2.069-2.07 0-1.142-.926-2.068-2.069-2.068zm0 5.517C1.426 7.931.5 8.857.5 10c0 1.143.926 2.069 2.069 2.069 1.143 0 2.069-.926 2.069-2.069 0-1.143-.926-2.069-2.069-2.069zm0 5.517c-1.143 0-2.069.926-2.069 2.07 0 1.142.926 2.068 2.069 2.068 1.143 0 2.069-.926 2.069-2.069 0-1.143-.926-2.069-2.069-2.069zm5.517-7.586h11.035c.762 0 1.379-.617 1.379-1.38 0-.761-.617-1.379-1.38-1.379H8.087c-.762 0-1.38.618-1.38 1.38 0 .762.618 1.379 1.38 1.379zm11.035 2.759H8.086c-.762 0-1.38.617-1.38 1.379s.618 1.38 1.38 1.38h11.035c.762 0 1.379-.618 1.379-1.38 0-.762-.617-1.38-1.38-1.38zm0 5.517H8.086c-.762 0-1.38.617-1.38 1.38 0 .761.618 1.378 1.38 1.378h11.035c.762 0 1.379-.617 1.379-1.379s-.617-1.38-1.38-1.38z"/>
    </g>
    <defs>
        <clipPath id="clip0">
            <path fill="#fff" d="M0 0H20V20H0z" transform="translate(.5)"/>
        </clipPath>
    </defs>
</svg>
