<svg xmlns="http://www.w3.org/2000/svg" width="80" height="80" fill="none" viewBox="0 0 80 80">
    <path fill="#000" stroke="#000" d="M16.035 16.428v17.777c0 .71.575 1.285 1.285 1.285h17.777c.71 0 1.286-.575 1.286-1.285v-3.37c0-.711-.576-1.286-1.286-1.286-.71 0-1.285.575-1.285 1.285v2.086H18.606V17.713h15.206v3.095c0 .71.576 1.286 1.285 1.286.71 0 1.286-.576 1.286-1.286v-4.38c0-.71-.576-1.286-1.286-1.286H17.32c-.71 0-1.285.576-1.285 1.286v0z"/>
    <path fill="#000" stroke="#000" d="M23.542 21.365c-.71 0-1.285.575-1.285 1.285v5.333c0 .71.575 1.286 1.285 1.286h5.334c.71 0 1.285-.576 1.285-1.286V22.65c0-.71-.576-1.285-1.285-1.285h-5.334zm4.048 5.333h-2.762v-2.763h2.762v2.763zM35.097 44.67H17.32c-.71 0-1.285.575-1.285 1.285v17.778c0 .71.575 1.285 1.285 1.285h17.777c.71 0 1.286-.575 1.286-1.285V45.955c0-.71-.576-1.285-1.286-1.285v0zm-1.285 17.778H18.606V47.24h15.206v15.207zM46.937 35.49h17.778c.71 0 1.285-.575 1.285-1.285V16.428c0-.71-.576-1.286-1.285-1.286H46.937c-.71 0-1.285.576-1.285 1.286v17.777c0 .71.575 1.285 1.285 1.285v0zm1.285-17.777H63.43V32.92H48.222V17.713zM66 63.733V45.955c0-.71-.576-1.285-1.285-1.285H46.937c-.71 0-1.285.575-1.285 1.285v17.778c0 .71.575 1.285 1.285 1.285h17.778c.71 0 1.285-.575 1.285-1.285zm-2.571-1.285H48.222V47.24H63.43v15.207z"/>
    <path fill="#000" stroke="#000" d="M64.715 41.444c.71 0 1.285-.576 1.285-1.286 0-.71-.576-1.285-1.285-1.285H42.178V16.286c0-.71-.575-1.286-1.285-1.286s-1.286.576-1.286 1.285v22.588h-17.06c-.71 0-1.286.575-1.286 1.285s.576 1.285 1.286 1.285h17.06v22.29c0 .71.576 1.285 1.286 1.285.71 0 1.285-.575 1.285-1.285v-22.29h22.537z"/>
    <path fill="#000" stroke="#000" d="M23.542 58.892h5.334c.71 0 1.285-.576 1.285-1.286v-5.333c0-.71-.576-1.285-1.285-1.285h-5.334c-.71 0-1.285.575-1.285 1.285v5.333c0 .71.575 1.286 1.285 1.286v0zm1.286-5.333h2.762v2.762h-2.762V53.56zM58.492 21.365H53.16c-.71 0-1.285.575-1.285 1.285v5.333c0 .71.575 1.286 1.285 1.286h5.333c.71 0 1.286-.576 1.286-1.286V22.65c0-.71-.576-1.285-1.286-1.285zm-1.285 5.333h-2.762v-2.763h2.762v2.763zM53.159 58.892h5.333c.71 0 1.286-.576 1.286-1.286v-5.333c0-.71-.576-1.285-1.286-1.285H53.16c-.71 0-1.285.575-1.285 1.285v5.333c0 .71.575 1.286 1.285 1.286v0zm1.286-5.333h2.762v2.762h-2.762V53.56zM17.06 38.878l-.07.016c-.69.163-1.118.855-.955 1.546.14.592.667.991 1.25.991.098 0 .196-.011.296-.035l.068-.016c.692-.163 1.12-.855.957-1.546-.163-.69-.855-1.118-1.546-.956zM34.839 24.538l-.07.017c-.69.162-1.12.854-.957 1.545.138.592.666.992 1.25.992.097 0 .196-.011.295-.035l.069-.016c.69-.162 1.12-.854.957-1.544-.162-.692-.854-1.12-1.544-.959z"/>
    <path fill="#CBB5E6" stroke="#CBB5E6" d="M3.931 14.585c.813 0 1.471-.658 1.471-1.47V5.48h7.357c.812 0 1.471-.658 1.471-1.47 0-.812-.659-1.471-1.471-1.471H3.93c-.811 0-1.47.659-1.47 1.47v9.106c0 .812.659 1.47 1.47 1.47zM75.99 2.539h-8.827c-.812 0-1.471.659-1.471 1.47 0 .813.659 1.471 1.471 1.471h7.357v7.635c0 .812.658 1.47 1.47 1.47.812 0 1.47-.658 1.47-1.47V4.01c0-.812-.658-1.471-1.47-1.471v0zM12.759 74.535H5.402V66.9c0-.811-.658-1.47-1.47-1.47-.812 0-1.471.659-1.471 1.47v9.105c0 .813.659 1.471 1.47 1.471h8.828c.812 0 1.471-.659 1.471-1.47 0-.813-.659-1.471-1.471-1.471v0zM75.99 65.43c-.812 0-1.47.659-1.47 1.47v7.635h-7.357c-.812 0-1.471.658-1.471 1.47 0 .813.659 1.471 1.471 1.471h8.828c.811 0 1.47-.659 1.47-1.47V66.9c0-.811-.659-1.47-1.47-1.47v0z"/>
</svg>
