<svg xmlns="http://www.w3.org/2000/svg" width="24" height="24" fill="none" viewBox="0 0 18 17">
    <g clip-path="url(#clip0)">
        <path fill="#CBB5E6" d="M12.263 10.088c2.041-2.882 1.358-6.872-1.523-8.912C7.858-.864 3.868-.182 1.828 2.7-.212 5.58.47 9.57 3.352 11.61c2.057 1.456 4.776 1.569 6.945.287l4.714 4.686c.509.535 1.356.557 1.891.048.536-.509.558-1.355.05-1.891l-.05-.049-4.639-4.604zm-5.221.437c-2.277 0-4.124-1.845-4.125-4.122 0-2.277 1.844-4.123 4.122-4.124 2.274-.001 4.12 1.84 4.124 4.115.003 2.278-1.84 4.127-4.118 4.13h-.003z"/>
    </g>
    <defs>
        <clipPath id="clip0">
            <path fill="#fff" d="M0 0H17V17H0z" transform="translate(.5)"/>
        </clipPath>
    </defs>
</svg>
