<svg xmlns="http://www.w3.org/2000/svg" width="30" height="31" fill="none" viewBox="0 0 30 31">
    <path fill="#CBB5E6" d="M27.31 8.833c-1.52 1.53-3.982 1.53-5.502 0-1.519-1.53-1.519-4.01 0-5.54L19.118.586 0 19.833l2.69 2.709c1.52-1.53 3.983-1.53 5.502 0 1.519 1.53 1.519 4.01 0 5.539l2.69 2.708L30 11.541l-2.69-2.708zm-12.338 2.545l-1.248-1.257 1.243-1.251 1.248 1.256-1.243 1.252zm2.496 2.513l-1.248-1.257 1.243-1.251 1.248 1.256-1.243 1.252zm2.495 2.513l-1.247-1.257 1.243-1.251 1.247 1.256-1.242 1.252z"/>
</svg>
