<svg xmlns="http://www.w3.org/2000/svg" width="24" height="23" fill="none" viewBox="0 0 24 23">
    <g clip-path="url(#clip0)">
        <path fill="#C8BEB9" d="M20.258 0c1.41 0 2.553 1.143 2.553 2.554H15.22L19.145 0h1.113zM20.258 22.5c1.41 0 2.553-1.143 2.553-2.554H15.22l3.926 2.554h1.113z"/>
        <path fill="#FFF5F9" d="M.889 19.946c0 1.41 1.145 2.554 2.558 2.554h16.81c-1.41 0-2.553-1.143-2.553-2.554V2.554c0-1.41 1.143-2.554 2.554-2.554H3.447C2.034 0 .889 1.143.889 2.554v17.392z"/>
        <path fill="#EBDCE5" d="M9.296 19.946c0 1.41 1.146 2.554 2.559 2.554h8.403c-1.41 0-2.554-1.143-2.554-2.554V2.554c0-1.41 1.143-2.554 2.554-2.554h-8.403c-1.413 0-2.559 1.143-2.559 2.554v17.392z"/>
        <path fill="#EBDCE5" d="M6.025 3.753h6.543V5.07H6.025V3.753zM5.2 9.763h8.192v1.319H5.2V9.763zM4.626 6.712h9.34V8.03h-9.34V6.712z"/>
        <path fill="#C8BEB9" d="M9.296 3.753h3.272V5.07H9.296V3.753zM9.296 9.763h4.096v1.319H9.296V9.763zM9.296 6.712h4.67V8.03h-4.67V6.712z"/>
        <path fill="#FF80AA" d="M9.296 14.334c-.33-.515-.908-.857-1.566-.857-1.028 0-1.86.833-1.86 1.86 0 1.25.84 2.516 3.426 4.358l1.129-3.35-1.129-2.011z"/>
        <path fill="#B8457E" d="M9.296 19.695c2.587-1.842 3.427-3.109 3.427-4.357 0-1.028-.833-1.86-1.86-1.86-.658 0-1.236.34-1.567.856v5.361z"/>
    </g>
    <defs>
        <clipPath id="clip0">
            <path fill="#fff" d="M0 0H22.5V22.5H0z" transform="translate(.6)"/>
        </clipPath>
    </defs>
</svg>
